<?xml version="1.0" encoding="UTF-8"?><svg xmlns="http://www.w3.org/2000/svg" xmlns:xlink="http://www.w3.org/1999/xlink" viewBox="0 0 10.05 7.77"><defs><style>.cls-1{fill:url(#linear-gradient-2);}.cls-2{isolation:isolate;}.cls-3{fill:#603913;}.cls-4{mix-blend-mode:soft-light;opacity:.82;}.cls-5{fill:url(#linear-gradient);}.cls-6{fill:#414042;}</style><linearGradient id="linear-gradient" x1=".05" y1="3.89" x2="10" y2="3.89" gradientUnits="userSpaceOnUse"><stop offset="0" stop-color="#e5e2df"/><stop offset="0" stop-color="#ded9d6"/><stop offset=".04" stop-color="#cfcbc9"/><stop offset=".11" stop-color="#a8a8a7"/><stop offset=".21" stop-color="#697071"/><stop offset=".26" stop-color="#465053"/><stop offset=".37" stop-color="#878d8e"/><stop offset=".46" stop-color="#b7b9ba"/><stop offset=".53" stop-color="#d4d5d5"/><stop offset=".57" stop-color="#e0e0e0"/><stop offset=".63" stop-color="#d6d7d7"/><stop offset=".73" stop-color="#bcbfc1"/><stop offset=".86" stop-color="#91989d"/><stop offset=".88" stop-color="#8b9298"/><stop offset="1" stop-color="#d1d3d4"/><stop offset="1" stop-color="#a7a9ac"/></linearGradient><linearGradient id="linear-gradient-2" x1="5.9" y1="2.27" x2="8.49" y2="2.27" xlink:href="#linear-gradient"/></defs><g class="cls-2"><g id="Layer_1"><path class="cls-5" d="m2.12,7.72c-.47,0-.9-.13-1.28-.38-.38-.24-.63-.59-.75-1.04-.08-.29-.05-.58.09-.85.11-.23.3-.42.57-.59.19-.12.4-.19.61-.21.04,0,.08,0,.12,0,.18,0,.35.04.51.13.31.16.51.4.61.69.08.25.04.49-.14.74-.13.19-.33.32-.59.4-.07.02-.15.03-.23.03s-.16-.01-.24-.04c-.1-.03-.19-.07-.28-.11-.12-.06-.2-.15-.24-.29-.02-.06,0-.12.04-.18l.13.05c.11.03.21.04.3.04.05,0,.1,0,.16-.01.1-.02.19-.05.28-.1.11-.07.21-.15.29-.25.09-.12.1-.26.02-.4-.12-.23-.33-.37-.61-.41-.04,0-.09-.01-.13-.01-.12,0-.25.03-.38.09,0,0-.04.05-.04.06,0,0-.03.04-.02.04h.14c.12,0,.18,0,.23.02.22.05.35.25.3.45-.03.11-.18.2-.33.2-.11-.02-.16-.04-.19-.07-.05-.05-.06-.11-.04-.17.02-.06.08-.1.16-.11h0c.08,0,.15.04.17.09,0,0,0,.05.02.06,0,0,.01.04.02.04h0s.07-.16.07-.17c-.03-.08-.09-.14-.17-.17-.1-.04-.2-.06-.31-.06-.29,0-.54.14-.65.37-.09.19-.11.39-.06.62.1.43.37.76.83.99.23.11.45.17.69.17.08,0,.39.01.39.01.38,0,.69-.05,1.02-.14.38-.11.74-.26,1.08-.45.3-.17.6-.35.9-.53l.78-.48.08-.06c-.37-.5-.66-1-.92-1.62-.08-.2-.33-.81-.33-.81,0,0-.07-.06-.08-.06h-.74c-.06.06-.08.12-.09.18l-.13.58c-.04.16.01.24.18.31l-.52.07c.06-.08.11-.12.14-.18.03-.08.06-.17.09-.26.07-.28.14-.57.21-.86l.58-2.46c.02-.11.09-.45.09-.45l.06-.09.12.41.12.64c.04.2.08.41.12.61.06.27.12.54.19.81.13.51.3,1.03.49,1.54.19.48.39.89.61,1.26.03.05.07.11.11.16,0,0,.12.02.12.02l.39-.2c.38-.2.74-.32,1.1-.4.22-.04.44-.07.66-.07.33,0,.54.05.73.12.32.12.52.31.6.59.04.12.03.26-.01.42-.09.31-.31.54-.66.69-.24.1-.48.16-.74.17,0,0-.02,0-.03,0-.27,0-.46-.04-.62-.08-.43-.1-.83-.29-1.22-.56-.1-.07-.19-.14-.29-.21l-.14-.11-.23.07-.7.47c-.29.2-.59.39-.88.58-.39.25-.77.44-1.16.57-.39.13-.75.2-1.11.2h-.06Zm6.44-2.82c-.26,0-.53.04-.79.12-.36.11-.72.27-1.09.5l-.1.07c-.02.13.04.18.09.22.4.35.8.59,1.25.76.23.09.45.13.67.13.06,0,.12,0,.18,0,.34-.04.61-.16.84-.36.2-.19.28-.42.23-.69-.04-.21-.18-.39-.41-.52-.19-.11-.41-.17-.68-.19-.06,0-.12,0-.19,0Zm-3.93-1.86s.07,0,.11-.01c-.07-.49-.18-.94-.3-1.38,0,0-.03,0-.05,0,0,0-.01,0-.01,0l-.06.23-.23.98c-.02.09-.03.12-.04.16l.16.03h.32s.11,0,.11,0Z"/><path class="cls-6" d="m4.62.03v.05h0s0,0,0,.02c.03.12.05.25.08.38.02.08.03.17.05.25.02.09.03.17.05.26l.02.12c.04.21.08.41.12.62.06.3.12.56.19.81.13.52.3,1.03.5,1.54.19.49.39.9.61,1.26.03.06.07.11.11.16.02.02.04.05.08.05.02,0,.04,0,.07-.02l.16-.09c.07-.04.15-.08.22-.12.38-.19.73-.32,1.09-.39.26-.05.46-.07.66-.07.03,0,.06,0,.08,0,.25,0,.45.05.64.11.31.11.51.31.59.57.04.12.03.25-.01.4-.09.3-.3.52-.65.67-.23.1-.47.15-.73.17-.03,0-.06,0-.09,0-.2,0-.39-.04-.55-.08-.42-.1-.82-.28-1.22-.56-.1-.07-.2-.15-.29-.22-.05-.04-.09-.07-.14-.11,0,0-.02-.01-.03-.02h-.02s-.02-.02-.03-.02-.02,0-.03,0l-.17.12-.37.24c-.12.08-.24.16-.36.24-.28.18-.56.38-.84.56-.38.25-.76.43-1.16.57-.39.13-.75.2-1.1.2h-.05c-.47,0-.9-.13-1.27-.37-.37-.24-.62-.58-.74-1.02-.08-.28-.05-.57.08-.84.11-.22.29-.41.56-.58.19-.12.39-.19.6-.21.04,0,.08,0,.12,0,.17,0,.34.04.5.13.3.16.5.39.6.68.08.24.03.47-.14.72-.13.18-.32.31-.57.39-.07.02-.15.03-.22.03-.08,0-.16-.01-.24-.04-.09-.03-.18-.06-.28-.11-.12-.05-.19-.14-.22-.27-.01-.05,0-.09.02-.13h.01s.11.03.11.03c.11.03.21.05.31.05.06,0,.11,0,.16-.01.1-.02.2-.05.29-.11.11-.07.21-.16.29-.26.1-.13.11-.28.03-.43-.13-.24-.34-.38-.62-.43-.04,0-.09-.01-.13-.01-.13,0-.26.03-.39.09,0,0-.06.03-.09.08,0,.02,0,.03,0,.05,0,.01.03.02.04.02.02,0,.05,0,.07,0,.02,0,.05,0,.07,0,0,0,.01,0,.02,0h.04c.06,0,.12.01.17.02.2.05.33.24.28.42-.02.1-.17.18-.3.18-.02,0-.03,0-.05,0-.05-.01-.09-.03-.12-.06-.04-.04-.05-.09-.03-.15.02-.05.07-.08.14-.1,0,0,.01,0,.02,0,.05,0,.11.03.13.07,0,0,0,.01,0,.02,0,.02,0,.04,0,.06,0,.02.02.03.03.03,0,0,.01,0,.02,0,.01,0,.02,0,.03-.01.08-.06.1-.13.08-.2-.04-.09-.1-.15-.19-.18-.1-.04-.21-.06-.32-.06-.3,0-.55.15-.67.38-.1.19-.12.4-.07.63.1.44.38.78.84,1.01.23.12.46.17.7.17.08,0,.16,0,.24,0,.04,0,.09,0,.13,0,.03,0,.06,0,.09,0,.31,0,.62-.05.95-.14.38-.11.74-.26,1.09-.45.29-.16.57-.34.85-.5l.21-.12c.16-.1.32-.19.47-.29l.14-.09s.04-.03.06-.04l.03-.02s.03-.04.01-.07h0s-.01-.03-.02-.04c-.35-.42-.64-.93-.9-1.54-.08-.2-.16-.39-.24-.59l-.09-.23s-.03-.07-.1-.07c-.12,0-.24,0-.37,0h-.18s-.18,0-.18,0c-.01,0-.03,0-.04.02-.05.06-.06.12-.07.18v.03c-.03.11-.06.22-.08.33l-.05.23c-.04.17.01.27.19.34.02,0,.03.01.03.01,0,0,0,0,0,0,0,0,0,0,0,0-.01,0-.02,0-.03,0h-.11s-.17,0-.17,0h-.24s-.05,0-.05,0c0,0,0,0,.04-.01.08-.02.14-.06.17-.13.03-.09.06-.17.09-.26.07-.29.14-.57.21-.86.05-.21.1-.42.14-.63.05-.21.09-.41.14-.62.05-.2.1-.4.14-.61.05-.2.1-.41.15-.61.02-.1.04-.2.06-.31l.03-.15v-.03s.01-.03.01-.03c0-.01,0-.02.02-.02V.03m-.56,3.04h.13s.11,0,.11,0h.06s.06,0,.06,0c.03,0,.05,0,.08,0h.02s.04,0,.04,0c.02,0,.03,0,.05,0,.03,0,.07,0,.12-.01.03,0,.04-.03.04-.06-.1-.49-.2-.93-.32-1.36,0-.02-.04-.04-.06-.04,0,0,0,0,0,0-.02,0-.04.01-.05.03v.02s-.02.04-.03.06c-.09.38-.18.75-.26,1.13,0,.02,0,.03-.01.05,0,.03-.02.07-.03.11,0,.01,0,.03.01.04s.02.02.04.02m4.51,3.65c.06,0,.12,0,.18-.01.34-.04.62-.16.86-.37.21-.19.29-.43.24-.72-.04-.22-.18-.4-.42-.54-.19-.11-.42-.18-.69-.2-.06,0-.12,0-.19,0-.26,0-.53.04-.8.12-.36.11-.72.27-1.1.5-.04.02-.07.05-.11.07l-.05.03s-.03.05-.01.07c.04.06.1.11.15.15.02.02.04.03.06.05.34.31.75.55,1.2.72.24.09.46.13.67.13M4.62.02s0,0,0,0c-.04,0-.06.02-.07.06,0,.02,0,.04-.01.06-.03.15-.06.3-.09.45-.09.41-.19.81-.29,1.22-.1.41-.19.83-.29,1.25-.07.29-.14.57-.21.86-.02.09-.05.17-.09.25-.02.05-.06.09-.13.1-.06.01-.08.03-.07.07,0,.03.02.04.09.04.08,0,.16,0,.24,0,.09,0,.19,0,.28,0,.01,0,.02,0,.04,0,.03,0,.04-.01.04-.04,0-.04,0-.05-.07-.08-.16-.06-.2-.13-.16-.28.04-.18.08-.37.13-.55.01-.06.02-.13.07-.19.12,0,.25,0,.37,0s.24,0,.37,0h0s.05.02.06.05c.11.27.21.54.33.81.23.55.51,1.08.91,1.55,0,.01.01.02.02.04-.03.02-.05.04-.08.06-.2.13-.41.26-.61.38-.35.21-.7.43-1.06.63-.34.19-.69.34-1.08.45-.31.09-.62.14-.94.14-.03,0-.06,0-.09,0-.13,0-.25-.01-.38-.01-.24,0-.47-.06-.68-.17-.44-.22-.72-.54-.81-.98-.05-.2-.04-.4.06-.6.12-.23.37-.35.63-.35.1,0,.2.02.3.05.08.03.13.09.16.16.02.05-.01.1-.06.14,0-.02,0-.06,0-.08-.03-.06-.1-.11-.17-.11,0,0-.02,0-.03,0-.08.01-.15.05-.18.13-.03.07-.02.14.04.2.04.04.09.06.15.07.02,0,.04,0,.06,0,.15,0,.32-.1.35-.22.05-.21-.08-.43-.32-.48-.07-.02-.14-.02-.22-.03,0,0-.01,0-.02,0-.04,0-.1,0-.14,0,.01-.02.05-.05.06-.05.12-.05.24-.08.37-.08.04,0,.08,0,.12,0,.27.04.47.18.59.4.07.12.07.25-.02.37-.07.1-.17.18-.28.25-.08.05-.17.08-.27.1-.05,0-.1.01-.15.01-.1,0-.2-.02-.3-.04-.05-.01-.11-.03-.16-.04-.04.07-.06.13-.04.2.03.13.11.24.25.3.09.04.19.08.28.11.08.02.17.04.25.04.08,0,.16-.01.23-.03.25-.07.46-.2.6-.41.17-.24.24-.49.15-.76-.1-.31-.32-.54-.62-.7-.16-.09-.34-.13-.52-.13-.04,0-.08,0-.13,0-.23.02-.44.1-.62.22-.25.16-.46.35-.58.6-.14.28-.17.57-.09.87.11.43.35.79.76,1.05.38.25.82.37,1.29.38.02,0,.03,0,.05,0,.39,0,.76-.08,1.12-.2.42-.14.81-.34,1.17-.57.41-.26.8-.53,1.2-.8.18-.12.36-.24.54-.36.02.01.03.02.04.03.14.11.28.22.43.33.37.26.78.45,1.23.56.19.04.37.08.56.08.03,0,.06,0,.09,0,.26-.02.51-.07.75-.17.34-.15.58-.37.68-.7.04-.14.06-.29.01-.43-.09-.29-.31-.49-.62-.6-.21-.08-.43-.11-.65-.12-.03,0-.06,0-.09,0-.22,0-.45.03-.67.07-.39.08-.76.22-1.11.4-.13.07-.26.14-.39.2-.02.01-.04.02-.05.02-.01,0-.02-.01-.04-.03-.04-.05-.08-.1-.11-.15-.25-.4-.44-.82-.61-1.25-.19-.5-.36-1.02-.49-1.53-.07-.27-.13-.54-.19-.81-.05-.24-.1-.49-.14-.73-.03-.17-.06-.34-.09-.51-.02-.13-.05-.25-.08-.38,0-.05-.02-.06-.06-.06h0Zm-.56,2.99c0-.06.03-.11.04-.16.09-.38.17-.75.26-1.13,0-.03.02-.05.02-.08,0,0,.01,0,.02,0,.13.45.23.89.32,1.35-.04,0-.07.01-.11.01-.03,0-.06,0-.09,0,0,0-.01,0-.02,0-.03,0-.05,0-.08,0-.04,0-.08,0-.13,0-.07,0-.16,0-.24,0h0Zm4.51,3.65c-.23,0-.44-.05-.66-.13-.45-.17-.85-.4-1.19-.71-.07-.06-.15-.11-.2-.19.05-.03.1-.07.15-.1.34-.21.7-.38,1.09-.5.26-.08.52-.12.79-.12.06,0,.12,0,.18,0,.24.02.46.07.67.19.21.12.36.29.4.51.05.25-.01.48-.22.67-.23.21-.5.32-.83.36-.06,0-.12,0-.18,0h0Z"/><path class="cls-1" d="m7.2,4.39c-.22,0-.41-.07-.58-.21-.19-.15-.33-.34-.44-.58-.12-.25-.2-.51-.24-.81-.04-.25-.04-.51-.02-.78.03-.28.07-.53.15-.75.08-.23.18-.42.3-.58.16-.21.34-.36.55-.45.12-.06.25-.08.38-.08.15,0,.31.04.47.13.11.06.19.17.25.25.17.25.17.52,0,.79-.11.17-.31.27-.54.27-.13,0-.25-.03-.35-.09-.11-.07-.18-.16-.23-.31-.02-.06-.02-.12-.01-.17.02-.09.07-.15.17-.18.1.29.3.4.54.4.18-.02.23-.08.26-.12.04-.06.07-.13.07-.22.01-.23-.14-.44-.38-.51h0s.01.04,0,.05c0,0,.03.06.03.07.09.11.12.2.09.29s-.09.14-.18.16h0c-.09,0-.15-.03-.18-.08-.03-.04-.03-.08-.02-.12.02-.05.06-.07.1-.07l.11.04s.03.07,0,.11c0,0,.01,0,.02,0,.05,0,.12-.07.1-.14-.03-.1-.09-.18-.18-.23-.05-.04-.09-.06-.13-.07-.03,0-.06,0-.08,0-.09,0-.14.02-.18.06-.1.08-.18.17-.23.26-.1.18-.17.37-.22.6-.04.19-.07.38-.08.57v.13c0,.19-.02.37,0,.56.02.43.08.78.21,1.08.05.13.11.26.23.37.04.05.1.09.16.12.07.04.14.07.22.07.06,0,.13-.02.2-.05.16-.09.17-.09.17-.22v-1.2c0-.08,0-.15-.02-.23,0-.04-.01-.07-.03-.11-.02-.05-.07-.08-.14-.09,0,0-.04-.09-.04-.09l.99.02.09.06c-.19.03-.23.08-.25.2,0,.06-.01.13-.01.19v1.18s-.01.07-.04.1c-.2.21-.46.35-.77.41-.08.01-.15.02-.22.02Z"/><path class="cls-6" d="m7.29.18c.15,0,.3.04.46.13.11.06.18.15.24.25.16.25.16.5,0,.76-.1.16-.3.26-.52.26-.12,0-.24-.03-.34-.09-.1-.06-.17-.15-.22-.3-.02-.06-.02-.11-.01-.16.01-.07.05-.11.11-.15l.03.07c.09.2.29.32.54.32.03,0,.06,0,.09,0,.09-.01.15-.07.19-.12.05-.06.07-.14.08-.23.01-.25-.14-.46-.39-.53,0,0,0,0-.01,0-.02,0-.03,0-.04.02-.01.02,0,.04,0,.06.02.02.05.05.06.07h.01c.08.1.1.18.07.27-.03.08-.08.13-.16.14,0,0-.02,0-.03,0-.05,0-.11-.03-.14-.07-.01-.02-.03-.05-.02-.09.01-.03.04-.05.08-.05,0,0,.01,0,.02,0,.02,0,.05,0,.06.03.02.03.02.05,0,.08-.01.02-.01.04,0,.05,0,.02.03.03.04.03.01,0,.03,0,.07-.05.04-.05.06-.1.05-.15-.04-.1-.1-.19-.19-.24h-.02s-.07-.06-.12-.08c-.03-.01-.06-.02-.09-.02-.07,0-.13.02-.19.07-.11.08-.18.17-.24.27-.1.18-.18.38-.23.6-.05.23-.07.41-.08.58v.14c-.01.18-.02.37,0,.55.02.43.08.78.21,1.09.05.13.12.27.23.38.05.05.1.09.16.13.07.05.15.07.24.07.07,0,.14-.02.21-.05.01,0,.03-.01.04-.02.13-.07.14-.09.14-.22v-.31c0-.3,0-.59,0-.89,0-.08,0-.16-.01-.23,0-.04-.02-.08-.04-.12-.02-.04-.06-.1-.16-.11-.01,0-.02,0-.03,0,0,0,0-.01,0-.02h.03s.94,0,.94,0c.03,0,.04,0,.05.01-.01,0-.02,0-.03,0-.12.02-.2.06-.22.2,0,.07-.01.14-.01.19,0,.39,0,.79,0,1.18,0,.03,0,.05-.04.08-.2.21-.45.34-.75.4-.07.01-.15.02-.21.02-.21,0-.4-.07-.57-.21-.19-.15-.33-.34-.44-.57-.12-.24-.2-.51-.24-.8-.04-.25-.04-.51-.02-.77.02-.28.07-.52.15-.74.08-.22.17-.41.29-.57.15-.2.33-.35.54-.45.12-.06.24-.08.37-.08m0-.05c-.13,0-.26.03-.39.09-.23.11-.41.27-.56.46-.14.18-.23.38-.3.58-.09.24-.13.5-.15.75-.02.26-.02.52.02.78.04.28.12.55.24.81.1.22.25.42.45.59.18.15.38.22.6.22.07,0,.15,0,.22-.02.31-.06.57-.2.78-.41.03-.03.05-.07.05-.12,0-.39,0-.79,0-1.18,0-.06,0-.13.01-.19.01-.11.06-.14.17-.16.02,0,.07-.02.07-.03.03-.06-.03-.09-.1-.09,0,0,0,0,0,0,0,0,0,0,0,0-.31,0-.62,0-.94,0-.01,0-.02,0-.04,0h-.04s0,.03-.01.04c0,.07,0,.07.07.08.06,0,.1.03.13.08.02.03.03.07.03.11,0,.08.01.15.01.23,0,.4,0,.8,0,1.2q0,.12-.11.18s-.03.01-.04.02c-.06.03-.13.04-.19.04-.07,0-.14-.02-.21-.06-.06-.03-.11-.08-.15-.12-.11-.11-.17-.23-.22-.36-.14-.35-.19-.71-.2-1.07,0-.23,0-.46,0-.69,0-.19.04-.38.08-.57.04-.21.11-.4.22-.59.06-.1.13-.18.23-.25.05-.04.1-.06.16-.06.02,0,.05,0,.08.01.04.02.08.04.12.07.08.05.14.13.17.22.01.06-.08.14-.08.14,0,0,0,0,0,0,.03-.05.03-.09,0-.14-.02-.03-.06-.05-.1-.05,0,0-.02,0-.02,0-.06,0-.1.04-.12.09-.04.11.08.23.21.23.01,0,.02,0,.03,0,.11-.02.17-.08.2-.18.04-.11,0-.21-.08-.3-.02-.02-.05-.06-.08-.09.24.07.37.27.36.48,0,.07-.02.14-.07.2-.04.05-.08.09-.15.1-.03,0-.06,0-.09,0-.21,0-.41-.09-.5-.29-.02-.03-.03-.07-.05-.11-.11.04-.17.11-.19.2-.01.06,0,.12.01.19.04.13.11.25.24.32.11.06.24.1.37.1.22,0,.45-.1.57-.28.17-.27.19-.54,0-.81-.07-.1-.14-.2-.26-.26-.16-.09-.32-.13-.48-.13h0Z"/><g class="cls-4"><path class="cls-3" d="m6.2,5.82c-.18.12-.36.24-.54.36-.4.27-.8.54-1.2.8-.36.23-.75.43-1.17.57-.38.13-.77.21-1.17.2-.47,0-.91-.13-1.29-.38-.41-.26-.65-.62-.76-1.05-.08-.3-.05-.59.09-.87.12-.25.33-.44.58-.6.19-.12.4-.19.62-.22.23-.03.45.02.65.12.31.16.52.4.62.7.09.27.02.53-.15.76-.14.2-.35.33-.6.41-.16.05-.33.04-.49,0-.1-.03-.19-.07-.28-.11-.14-.06-.22-.17-.25-.3-.02-.07,0-.14.04-.2.05.02.11.03.16.04.15.04.3.06.45.03.1-.02.19-.05.27-.1.11-.07.2-.15.28-.25.09-.12.09-.25.02-.37-.12-.22-.32-.36-.59-.4-.17-.03-.34,0-.49.07-.02,0-.05.03-.06.05.05,0,.12-.01.16,0,.07,0,.15,0,.22.03.24.06.37.28.32.48-.03.14-.24.25-.41.22-.06-.01-.11-.03-.15-.07-.06-.06-.07-.13-.04-.2.03-.08.1-.11.18-.13.08-.01.17.04.2.1,0,.02,0,.06,0,.08.05-.04.08-.09.06-.14-.03-.07-.08-.13-.16-.16-.35-.13-.77-.02-.93.3-.1.19-.11.39-.06.6.1.44.38.76.81.98.21.11.43.17.68.17.13,0,.25,0,.38.01.35.01.69-.04,1.03-.14.38-.11.74-.26,1.08-.45.36-.2.71-.42,1.06-.63.21-.12.41-.25.61-.38.03-.02.05-.04.08-.06,0-.01-.01-.03-.02-.04-.39-.48-.68-1-.91-1.55-.11-.27-.22-.54-.33-.81,0-.03-.02-.05-.06-.05-.25,0-.49,0-.74,0-.05.06-.06.12-.07.19-.04.18-.08.37-.13.55-.03.15,0,.22.16.28.06.02.07.04.07.08,0,.02-.02.03-.04.04-.01,0-.02,0-.04,0-.17,0-.34,0-.52,0-.07,0-.09,0-.09-.04,0-.04,0-.06.07-.07.07-.01.11-.05.13-.1.03-.08.06-.17.09-.25.07-.28.14-.57.21-.86.1-.41.19-.83.29-1.25.09-.41.19-.81.29-1.22.04-.15.06-.3.09-.45,0-.02,0-.04.01-.06,0-.03.03-.06.07-.06.04,0,.05.01.06.06.03.13.05.25.08.38.03.17.06.34.09.51.05.25.09.49.14.73.06.27.12.54.19.81.13.52.3,1.03.49,1.53.17.43.36.85.61,1.25.03.05.07.1.11.15.03.04.04.04.09.02.13-.07.26-.14.39-.2.35-.18.71-.32,1.11-.4.25-.05.5-.08.75-.07.22,0,.45.04.65.12.31.11.53.31.62.6.04.14.03.29-.01.43-.1.33-.33.56-.68.7-.24.1-.48.16-.75.17-.23.01-.44-.03-.65-.08-.46-.11-.86-.31-1.23-.56-.15-.1-.29-.22-.43-.33-.01,0-.02-.02-.04-.03Zm.33-.18c.05.08.13.13.2.19.34.3.74.54,1.19.71.27.1.54.15.83.12.32-.04.6-.15.83-.36.21-.19.27-.42.22-.67-.04-.22-.19-.39-.4-.51-.2-.12-.43-.17-.67-.19-.33-.02-.66.02-.97.11-.39.12-.75.29-1.09.5-.05.03-.1.07-.15.1Zm-2.12-3.99s-.01,0-.02,0c0,.03-.02.05-.02.08-.09.38-.18.75-.26,1.13-.01.05-.03.1-.04.16.08,0,.17,0,.24,0s.14,0,.21,0c.07,0,.14,0,.22,0-.09-.46-.19-.91-.32-1.35Z"/><path class="cls-3" d="m7.02.81s.04.08.05.11c.1.22.34.31.58.28.07,0,.12-.05.15-.1.05-.06.06-.13.07-.2.01-.21-.12-.41-.36-.48.03.03.06.06.08.09.08.09.12.19.08.3-.03.09-.09.16-.2.18-.14.02-.28-.11-.24-.23.02-.05.06-.08.12-.09.05,0,.1,0,.13.05.03.04.03.09,0,.14,0,.01.09-.08.08-.14-.03-.09-.08-.16-.17-.22-.04-.03-.08-.05-.12-.07-.09-.03-.17,0-.24.05-.09.07-.17.16-.23.25-.11.19-.18.38-.22.59-.04.19-.07.38-.08.57,0,.23-.02.46,0,.69.01.36.06.72.2,1.07.05.13.11.26.22.36.04.04.1.09.15.12.13.08.26.08.4.02.01,0,.03-.01.04-.02q.12-.06.11-.18c0-.4,0-.8,0-1.2,0-.08,0-.15-.01-.23,0-.04-.02-.07-.03-.11-.02-.05-.07-.07-.13-.08-.08,0-.08-.01-.07-.08,0-.01,0-.02.01-.04.03,0,.05,0,.07,0,.31,0,.62,0,.94,0,0,0,0,0,0,0,.07,0,.13.03.1.09,0,.01-.06.03-.07.03-.12.02-.16.06-.17.16,0,.06-.01.13-.01.19,0,.39,0,.79,0,1.18,0,.05-.02.08-.05.12-.21.22-.47.35-.78.41-.31.06-.59,0-.82-.2-.2-.17-.35-.36-.45-.59-.12-.26-.2-.53-.24-.81-.04-.26-.04-.52-.02-.78.02-.26.07-.51.15-.75.07-.21.17-.4.3-.58.15-.19.32-.35.56-.46.3-.14.59-.11.87.05.11.06.19.16.26.26.18.27.17.55,0,.81-.19.29-.63.36-.93.19-.13-.08-.2-.19-.24-.32-.02-.06-.03-.12-.01-.19.02-.09.08-.16.19-.2Z"/></g></g></g></svg>