<?xml version="1.0" encoding="UTF-8"?><svg id="Layer_1" xmlns="http://www.w3.org/2000/svg" viewBox="0 0 20 25.2"><defs><style>.cls-1{fill:#fff;}.cls-2{fill:none;}</style></defs><path class="cls-1" d="m19.33.68C18.9.24,18.33,0,17.64,0c0,0-.35,0-.35,0H2.36c-.98,0-1.74.49-2.14,1.39C.08,1.7,0,2.08,0,2.5,0,6.87,0,11.24,0,15.61v3.65c0,1.18,0,2.37,0,3.55,0,1.38.98,2.38,2.32,2.38h5.98s5.98,0,5.98,0c.09,0,.17,0,.26-.01h.12c.19-.02.35-.12.45-.26.4-.41,4.04-3.53,4.53-3.87.19-.1.32-.3.32-.53V3.62c0-.27.01-.54.02-.82v-.27c.04-.72-.2-1.38-.66-1.85Zm.24,2.77c0,5.46,0,10.92,0,16.38v.83c-.11,0-4.84,4.01-4.84,4.13-.13,0-.24.02-.35.02-4.07,0-8.14,0-12.21,0-1.02,0-1.76-.76-1.76-1.82,0-1.71,0-3.42,0-5.12,0-5.18,0-10.37,0-15.55,0-.3.04-.62.16-.89C.87.75,1.41.38,2.19.38c4.79,0,9.58,0,14.37,0,.42,0,.83.01,1.25,0,1.04-.03,1.83.81,1.79,1.95-.01.38-.03.75-.03,1.13Z"/><path class="cls-2" d="m12.22,9.17c-.24.34-.32.45-.49.69.45.32.7.51,1.08.76l.5-.78c.24.03.44.05.64.08,1.26.18,2.44-1.21,1.87-2.46-.06-.13-.12-.25-.2-.37-.22-.33-.45-.65-.67-.99-.12-.18-.24-.37-.11-.62.25,0,.5.02.7.19.23.2.44.43.64.66.1.11.18.23.27.34.24-.06.91-.71,1.05-1.01-.2-.4-.54-.69-.89-1,.15-.24.28-.46.42-.68-.37-.23-.71-.44-1.08-.67l-.46.73c-.21-.03-.39-.08-.58-.09-.19-.01-.38-.01-.56.02-.95.18-1.73,1.24-1.25,2.34.13.31.35.58.53.86.15.23.32.46.47.69.08.13.1.28-.02.42-.12.13-.27.12-.41.08-.06-.01-.11-.04-.16-.07-.47-.25-.84-.6-1.1-1.06-.06-.11-.14-.2-.19-.27-.38.35-.73.68-1.07,1.01.23.53.75.83,1.1,1.22Z"/><rect class="cls-2" x="2.11" y="18.6" width="7.89" height="1.04"/><rect class="cls-2" x="2.11" y="13.71" width="14.88" height="1.04"/><path class="cls-2" d="m3.04,10.23h6.27v-5.45h1.18L6.17,1.83,1.86,4.78h1.18v5.45Zm1.85-2.77h0v-1.23h2.57v1.23h0v.1h0v1.24h-2.57v-1.24h0v-.1Z"/><rect class="cls-2" x="2.11" y="11.88" width="14.88" height="1.04"/><rect class="cls-2" x="2.11" y="16.77" width="8.78" height="1.04"/><path class="cls-2" d="m17.68,18.16c-.03.09-.04.13-.05.18-.07.33-.08.34-.41.41-.28.06-.56.14-.84.21-.08.02-.17.04-.25.06-.06-.11-.1-.2-.15-.28-.18-.12-.32-.05-.43.04-.14.11-.25.26-.39.36-.22.16-.45.33-.7.43-.24.11-.51.1-.78,0,.05-.18.16-.22.28-.23.12-.02.24-.04.35-.05.14-.02.25-.07.3-.21.05-.14-.02-.27-.13-.34-.19-.12-.38-.25-.6-.31-.42-.12-.75.15-.79.58,0,.1-.02.19-.03.31-.16-.01-.29-.02-.47-.04.1-.14.17-.23.21-.33.06-.14.12-.29.14-.45.03-.23-.07-.41-.28-.52-.21-.11-.36.01-.51.14-.08.07-.16.15-.22.24-.13.21-.25.43-.35.66-.09.19-.17.4-.24.59-.17-.03-.3-.05-.44-.08-.06.42.03.57.39.69.2-.03.31-.16.37-.34.07-.19.11-.39.2-.56.14-.28.31-.55.48-.82.03-.05.1-.07.17-.11.07.19.03.33-.07.45-.08.1-.17.19-.26.29-.13.14-.16.29-.04.45.24.16.5.13.76.12.2,0,.36.03.52.15.2.15.44.24.7.19.44-.09.87-.22,1.19-.57.06-.07.15-.13.24-.2.21.27.46.2.72.13.34-.09.67-.17,1.01-.25.55-.12.77-.44.69-1.06-.11.02-.21.04-.3.05Zm-4.22.81c.04-.07.05-.16.11-.19.15-.07.27,0,.44.15-.2.04-.35.08-.49.11-.02-.02-.04-.05-.05-.07Z"/><rect class="cls-2" x="2.11" y="15.37" width="14.88" height="1.04"/><rect class="cls-1" x="4.89" y="7.56" width="1.23" height="1.24"/><rect class="cls-1" x="6.22" y="7.56" width="1.24" height="1.24"/><path class="cls-1" d="m17.64.6c-.41.01-.81,0-1.22,0-4.69,0-9.38,0-14.07,0-.76,0-1.29.36-1.6,1.04-.12.26-.16.58-.16.87,0,5.09,0,10.18,0,15.27,0,1.68,0,3.35,0,5.03,0,1.04.72,1.78,1.72,1.79,3.98,0,7.97,0,11.95,0,.11,0,.21-.01.34-.02,0-.12.02-.22.02-.31,0-.56-.01-1.12,0-1.68.03-1.19.9-2.03,2.1-2.1.76-.04,1.53.02,2.29.04.11,0,.21,0,.32,0v-.82c0-5.36,0-10.72,0-16.08,0-.37.02-.74.03-1.11.04-1.12-.73-1.94-1.75-1.91Zm-5.45,6.34c.05.07.13.17.19.27.26.46.64.81,1.1,1.06.05.03.11.06.16.07.15.04.3.05.41-.08.12-.13.1-.28.02-.42-.15-.24-.31-.46-.47-.69-.18-.28-.4-.55-.53-.86-.48-1.1.3-2.16,1.25-2.34.18-.04.38-.03.56-.02.18.01.37.06.58.09l.46-.73c.37.23.71.44,1.08.67-.14.22-.27.44-.42.68.35.31.7.6.89,1-.14.3-.81.95-1.05,1.01-.08-.11-.17-.23-.27-.34-.21-.22-.42-.45-.64-.66-.19-.17-.45-.18-.7-.19-.13.25-.01.44.11.62.22.33.45.65.67.99.08.12.14.24.2.37.57,1.25-.61,2.64-1.87,2.46-.2-.03-.39-.05-.64-.08l-.5.78c-.37-.26-.63-.44-1.08-.76.16-.24.24-.35.49-.69-.34-.39-.87-.69-1.1-1.22.34-.32.7-.65,1.07-1.01ZM2.11,14.75v-1.04h14.88v1.04H2.11Zm14.88.63v1.04H2.11v-1.04h14.88Zm-14.88-2.46v-1.04h14.88v1.04H2.11ZM6.17,1.83l4.31,2.95h-1.18v5.45H3.04v-5.45h-1.18L6.17,1.83Zm3.83,17.8H2.11v-1.04h7.89v1.04Zm.89-1.83H2.11v-1.04h8.78v1.04Zm6.4,1.37c-.34.07-.67.16-1.01.25-.26.07-.51.13-.72-.13-.1.08-.18.13-.24.2-.32.35-.75.48-1.19.57-.26.05-.5-.04-.7-.19-.17-.13-.33-.16-.52-.15-.26.01-.52.04-.76-.12-.12-.16-.09-.31.04-.45.09-.1.18-.19.26-.29.1-.12.14-.26.07-.45-.07.04-.14.06-.17.11-.17.27-.34.54-.48.82-.09.18-.13.38-.2.56-.06.18-.18.31-.37.34-.36-.12-.45-.27-.39-.69.14.02.27.05.44.08.08-.19.15-.39.24-.59.11-.22.23-.44.35-.66.05-.09.13-.17.22-.24.14-.12.3-.25.51-.14.21.11.31.29.28.52-.02.15-.08.3-.14.45-.04.1-.11.18-.21.33.18.01.31.03.47.04.01-.12.02-.22.03-.31.04-.43.37-.69.79-.58.21.06.41.19.6.31.11.07.18.19.13.34-.05.14-.16.19-.3.21-.12.02-.24.04-.35.05-.12.02-.23.06-.28.23.27.09.54.1.78,0,.25-.11.48-.27.7-.43.14-.1.26-.25.39-.36.12-.1.25-.16.43-.04.05.09.09.17.15.28.09-.02.17-.04.25-.06.28-.07.56-.15.84-.21.33-.08.35-.08.41-.41,0-.05.03-.09.05-.18.09-.02.2-.03.3-.05.08.62-.15.95-.69,1.06Z"/><polygon class="cls-1" points="6.12 6.22 6.22 6.22 6.22 7.46 7.46 7.46 7.46 6.22 4.89 6.22 4.89 7.46 6.12 7.46 6.12 6.22"/><path class="cls-1" d="m13.57,18.79c-.05.03-.07.12-.11.19.02.02.04.05.05.07.15-.03.29-.07.49-.11-.17-.16-.29-.22-.44-.15Z"/><rect x="7.46" y="7.46" width="0" height=".1"/><rect x="4.89" y="7.46" width="0" height=".1"/></svg>