<?xml version="1.0" encoding="UTF-8"?><svg id="Layer_1" xmlns="http://www.w3.org/2000/svg" viewBox="0 0 18.93 24"><defs><style>.cls-1{stroke-width:.35px;}.cls-1,.cls-2{fill:none;stroke:#000;stroke-miterlimit:10;}.cls-2{stroke-width:.5px;}</style></defs><path d="m18.91,19.86c-.46.34-.89.67-1.32.99-1.16.86-2.28,1.77-3.2,2.9-.14.17-.3.24-.52.24-1.93,0-3.86,0-5.79,0-2.01,0-4.01-.04-6.02.01C.89,24.03,0,23,0,21.93c0-1.54,0-3.09,0-4.63,0-4.87,0-9.74,0-14.61,0-.35,0-.7.07-1.03C.29.63,1.07.02,2.16,0c.94-.01,1.88,0,2.82,0,3.9,0,7.8.01,11.69,0,1.53,0,2.25,1.1,2.25,2.24,0,4.8,0,9.61,0,14.41,0,.95,0,1.91,0,2.86,0,.11,0,.23-.01.35Zm-.41-.2c0-.28,0-.53,0-.79,0-5.18,0-10.36,0-15.54,0-.36.02-.71.03-1.07.04-1.08-.7-1.88-1.69-1.85-.39.01-.79,0-1.18,0-4.53,0-9.06,0-13.59,0-.74,0-1.25.35-1.54,1-.11.25-.15.56-.15.84,0,4.92,0,9.84,0,14.75,0,1.62,0,3.24,0,4.86,0,1.01.7,1.72,1.66,1.72,3.85,0,7.7,0,11.55,0,.1,0,.2-.01.33-.02,0-.12.02-.21.02-.3,0-.54-.01-1.08,0-1.62.03-1.15.87-1.97,2.03-2.03.74-.04,1.48.02,2.21.03.1,0,.21,0,.31,0Zm-4.21,3.44s.06.02.08.03c.57-.52,1.13-1.05,1.72-1.55.6-.5,1.22-.97,1.87-1.48-.11-.02-.18-.05-.25-.05-.64,0-1.29-.02-1.93,0-.66.02-1.33.58-1.4,1.21-.07.61-.07,1.23-.1,1.84Z"/><path d="m11.14,9.36c.16-.23.23-.34.47-.67-.33-.38-.84-.67-1.06-1.18.33-.31.67-.63,1.04-.97.05.07.13.16.19.26.26.45.61.78,1.06,1.03.05.03.1.06.16.07.14.04.29.05.4-.08.12-.13.1-.27.02-.4-.14-.23-.3-.44-.45-.67-.18-.27-.39-.53-.51-.83-.46-1.06.29-2.09,1.21-2.26.18-.03.36-.03.54-.02.18.01.36.05.56.09l.44-.71c.36.22.68.43,1.05.65-.13.21-.26.43-.4.66.34.3.67.58.86.96-.13.29-.78.92-1.01.97-.08-.1-.16-.22-.26-.32-.2-.22-.4-.44-.62-.63-.19-.17-.43-.18-.67-.18-.13.25-.01.43.1.6.21.32.44.63.65.95.07.11.13.23.19.36.55,1.21-.59,2.55-1.81,2.38-.19-.03-.38-.05-.62-.08l-.48.76c-.36-.25-.61-.42-1.04-.74Zm.97-.72l-.45.63.41.27c.16-.25.3-.48.45-.72.1.03.18.06.26.08.35.11.72.16,1.08.08.72-.16,1.33-1.1.81-1.95-.19-.3-.41-.58-.6-.88-.12-.19-.25-.39-.33-.61-.16-.48.11-.83.61-.82.34,0,.6.17.85.37.21.17.41.34.65.54.13-.05.29-.18.37-.44l-.87-.77.36-.67-.4-.23-.4.64c-.11-.03-.21-.05-.3-.07-.24-.04-.49-.1-.74-.1-.83.03-1.45.91-1.08,1.69.09.2.2.39.32.58.2.31.43.61.63.93.16.27.17.55-.03.81-.21.27-.5.3-.81.24-.28-.06-.52-.21-.72-.41-.24-.24-.47-.49-.71-.74l-.47.41c.24.5.68.78,1.11,1.12Z"/><path d="m15.24,17.94c.04.08.09.17.14.27.09-.02.17-.04.25-.06.27-.07.54-.14.81-.2.32-.07.33-.08.4-.4,0-.05.03-.09.05-.17.09-.02.19-.03.29-.05.08.6-.14.91-.67,1.03-.33.07-.65.16-.98.24-.25.06-.49.13-.69-.13-.09.08-.17.13-.24.2-.31.34-.72.47-1.15.55-.25.05-.48-.04-.68-.19-.16-.12-.32-.16-.51-.15-.25.01-.5.04-.73-.11-.12-.15-.09-.3.04-.44.08-.09.17-.18.25-.28.09-.12.13-.25.07-.43-.07.04-.14.06-.17.1-.16.26-.33.52-.46.79-.09.17-.13.36-.19.54-.06.17-.17.3-.36.33-.35-.12-.44-.26-.38-.67.13.02.27.05.43.07.08-.18.15-.38.23-.57.1-.22.22-.43.34-.63.05-.09.13-.17.21-.24.14-.12.29-.24.49-.13.2.11.3.28.27.5-.02.15-.08.29-.14.43-.04.09-.11.17-.2.31.17.01.3.02.45.04,0-.12.02-.21.03-.3.04-.42.36-.67.76-.56.2.06.39.19.58.3.11.07.17.19.13.33-.04.14-.15.19-.29.2-.11.01-.23.04-.34.05-.12.02-.22.06-.27.23.26.09.52.1.75,0,.24-.11.46-.26.68-.42.14-.1.25-.24.38-.35.11-.09.25-.16.42-.04Zm-1.9.19c-.16-.15-.28-.22-.42-.15-.05.03-.07.12-.1.18.02.02.04.05.05.07.14-.03.28-.06.48-.11Z"/><rect class="cls-1" x="2.74" y="4.46" width="6.06" height="5.26"/><rect class="cls-1" x="4.52" y="5.85" width="2.48" height="2.48"/><line class="cls-1" x1="5.77" y1="8.33" x2="5.77" y2="5.85"/><line class="cls-1" x1="7.01" y1="7.09" x2="4.52" y2="7.09"/><polygon class="cls-1" points="9.93 4.46 5.77 1.61 1.6 4.46 9.93 4.46"/><line class="cls-2" x1="1.84" y1="18.31" x2="9.46" y2="18.31"/><line class="cls-2" x1="1.84" y1="16.54" x2="10.32" y2="16.54"/><line class="cls-2" x1="1.84" y1="15.19" x2="16.22" y2="15.19"/><line class="cls-2" x1="1.84" y1="13.59" x2="16.22" y2="13.59"/><line class="cls-2" x1="1.84" y1="11.82" x2="16.22" y2="11.82"/></svg>